<?xml version="1.0" encoding="UTF-8" standalone="no"?>
<!DOCTYPE svg PUBLIC "-//W3C//DTD SVG 1.1//EN" "http://www.w3.org/Graphics/SVG/1.1/DTD/svg11.dtd">
<svg width="100%" height="100%" viewBox="0 0 48 48" version="1.1" xmlns="http://www.w3.org/2000/svg" xmlns:xlink="http://www.w3.org/1999/xlink" xml:space="preserve" xmlns:serif="http://www.serif.com/" style="fill-rule:evenodd;clip-rule:evenodd;stroke-linejoin:round;stroke-miterlimit:2;">
    <g transform="matrix(0.0942245,0,0,0.0942245,3.01241,-68.3135)">
        <g transform="matrix(0.998084,0,0,5.45924,0.00618946,-3216.43)">
            <path d="M443.092,733.106L443.092,801.937C443.092,809.311 410.395,815.289 370.062,815.289C288.629,815.289 157.694,815.289 76.261,815.289C35.928,815.289 3.231,809.311 3.231,801.937C3.231,778.66 3.231,733.106 3.231,733.106L443.092,733.106Z" style="fill:rgb(238,238,238);"/>
        </g>
        <g transform="matrix(0.998084,0,0,1.68736,0.00618946,-512.009)">
            <path d="M380.117,733.106C396.819,733.106 412.837,737.031 424.647,744.016C436.458,751.002 443.092,760.477 443.092,770.356C443.092,792.099 443.092,815.289 443.092,815.289L3.231,815.289L3.231,770.356C3.231,760.477 9.866,751.002 21.676,744.016C33.486,737.031 49.504,733.106 66.206,733.106C149.792,733.106 296.531,733.106 380.117,733.106Z" style="fill:rgb(238,238,238);"/>
        </g>
        <g transform="matrix(1,0,0,2.31398,-45.3742,-1302.18)">
            <path d="M374.086,916.786L374.086,930.357C374.086,934.101 367.051,937.142 358.385,937.142L87.721,937.142C79.055,937.142 72.02,934.101 72.02,930.357L72.02,916.786C72.02,913.042 79.055,910.001 87.721,910.001L358.385,910.001C367.051,910.001 374.086,913.042 374.086,916.786Z" style="fill:rgb(66,89,60);"/>
        </g>
        <g transform="matrix(1,0,0,2.31398,-45.3742,-1131.41)">
            <path d="M374.086,916.786L374.086,930.357C374.086,934.101 367.051,937.142 358.385,937.142L87.721,937.142C79.055,937.142 72.02,934.101 72.02,930.357L72.02,916.786C72.02,913.042 79.055,910.001 87.721,910.001L358.385,910.001C367.051,910.001 374.086,913.042 374.086,916.786Z" style="fill:rgb(66,89,60);"/>
        </g>
        <g transform="matrix(0.780987,0,0,2.02799,-29.6008,-954.056)">
            <path d="M374.086,916.786L374.086,930.357C374.086,934.101 366.191,937.142 356.467,937.142L89.639,937.142C79.915,937.142 72.02,934.101 72.02,930.357L72.02,916.786C72.02,913.042 79.915,910.001 89.639,910.001L356.467,910.001C366.191,910.001 374.086,913.042 374.086,916.786Z" style="fill:rgb(66,89,60);"/>
        </g>
        <g transform="matrix(0.780987,0,0,2.02799,-29.6008,-783.284)">
            <path d="M374.086,916.786L374.086,930.357C374.086,934.101 366.191,937.142 356.467,937.142L89.639,937.142C79.915,937.142 72.02,934.101 72.02,930.357L72.02,916.786C72.02,913.042 79.915,910.001 89.639,910.001L356.467,910.001C366.191,910.001 374.086,913.042 374.086,916.786Z" style="fill:rgb(66,89,60);"/>
        </g>
    </g>
</svg>
