<svg width="33" height="32" viewBox="0 0 33 32" fill="none" xmlns="http://www.w3.org/2000/svg">
<path d="M16.7281 10.6043C18.0981 10.6069 19.4182 11.093 20.4326 11.9684C21.4469 12.8438 22.083 14.0462 22.2176 15.3423C22.3522 16.6383 21.9756 17.9357 21.161 18.9828C20.3463 20.0298 19.1516 20.752 17.8085 21.0091C16.4655 21.2662 15.0699 21.0399 13.8923 20.3743C12.7148 19.7086 11.8393 18.6509 11.4357 17.4064C11.032 16.1618 11.129 14.8191 11.7078 13.6387C12.2866 12.4583 13.3059 11.5243 14.5681 11.0179C15.2516 10.7436 15.9862 10.603 16.7281 10.6043ZM16.7281 8.68506C14.7204 8.68506 12.795 9.44325 11.3753 10.7928C9.95565 12.1423 9.15808 13.9727 9.15808 15.8812C9.15808 17.7898 9.95565 19.6201 11.3753 20.9697C12.795 22.3192 14.7204 23.0774 16.7281 23.0774C18.7358 23.0774 20.6612 22.3192 22.0809 20.9697C23.5005 19.6201 24.2981 17.7898 24.2981 15.8812C24.2981 13.9727 23.5005 12.1423 22.0809 10.7928C20.6612 9.44325 18.7358 8.68506 16.7281 8.68506Z" fill="#70AC5E"/>
<path d="M18.3642 2.54405V5.34077L19.8222 5.74193C20.6083 5.95852 21.3667 6.25759 22.0832 6.63361L23.4122 7.33041L24.4852 6.30944L25.4932 5.35123L27.8062 7.55001L26.7982 8.50823L25.7242 9.52824L26.4592 10.7916C26.8547 11.4728 27.1694 12.1936 27.3972 12.9409L27.8192 14.327H30.7602V17.4355H27.8182L27.3962 18.8215C27.1684 19.5688 26.8538 20.2897 26.4582 20.9708L25.7252 22.2342L26.7992 23.2542L27.8072 24.2124L25.4942 26.4112L24.4862 25.453L23.4132 24.432L22.0842 25.1307C21.3676 25.5067 20.6093 25.8058 19.8232 26.0224L18.3652 26.4236V29.2193H15.0942V26.4226L13.6362 26.0215C12.8501 25.8049 12.0917 25.5058 11.3752 25.1298L10.0462 24.433L8.97321 25.4539L7.96519 26.4122L5.65221 24.2134L6.6602 23.2552L7.73419 22.2351L7.00121 20.9718C6.60573 20.2906 6.29113 19.5697 6.0632 18.8224L5.6412 17.4364H2.6992V14.3279H5.6412L6.0632 12.9419C6.29112 12.1946 6.60572 11.4738 7.00121 10.7926L7.73419 9.52919L6.6602 8.50823L5.65221 7.55001L7.96519 5.35123L8.97321 6.30944L10.0462 7.33041L11.3752 6.63361C12.0917 6.25759 12.8501 5.95852 13.6362 5.74193L15.0942 5.34077V2.54405H18.3642ZM19.0262 0.624757H14.4322C14.0723 0.624757 13.7271 0.760671 13.4727 1.00259C13.2182 1.24451 13.0752 1.57261 13.0752 1.91474V3.89773C12.1448 4.15353 11.2472 4.50713 10.3992 4.95197L8.9232 3.5498C8.79718 3.42989 8.64753 3.33476 8.4828 3.26985C8.31808 3.20495 8.14151 3.17155 7.9632 3.17155C7.78488 3.17155 7.60833 3.20495 7.4436 3.26985C7.27888 3.33476 7.12923 3.42989 7.0032 3.5498L3.7552 6.63741C3.62906 6.75721 3.52899 6.89947 3.46071 7.05606C3.39243 7.21265 3.35728 7.3805 3.35728 7.55001C3.35728 7.71951 3.39243 7.88735 3.46071 8.04394C3.52899 8.20053 3.62906 8.34279 3.7552 8.46259L5.23019 9.8657C4.76226 10.6719 4.3903 11.5251 4.1212 12.4096H2.0352C1.67565 12.4098 1.3309 12.5457 1.07666 12.7874C0.822418 13.0291 0.679464 13.3568 0.679199 13.6986V18.0657C0.679199 18.4078 0.822173 18.736 1.07666 18.9779C1.33115 19.2198 1.6763 19.3557 2.03619 19.3557H4.12219C4.39136 20.2399 4.76333 21.0928 5.2312 21.8986L3.7562 23.3017C3.63005 23.4215 3.52998 23.5638 3.4617 23.7204C3.39342 23.877 3.35829 24.0448 3.35829 24.2143C3.35829 24.3838 3.39342 24.5517 3.4617 24.7083C3.52998 24.8649 3.63005 25.0071 3.7562 25.1269L7.0042 28.2145C7.13022 28.3344 7.27987 28.4296 7.4446 28.4945C7.60932 28.5594 7.78589 28.5928 7.9642 28.5928C8.14252 28.5928 8.31907 28.5594 8.4838 28.4945C8.64852 28.4296 8.79817 28.3344 8.92419 28.2145L10.4002 26.8124C11.2482 27.2572 12.1458 27.6108 13.0762 27.8666V29.8496C13.0762 30.1917 13.2192 30.5198 13.4736 30.7617C13.7281 31.0037 14.0733 31.1396 14.4332 31.1396H19.0272C19.3871 31.1396 19.7323 31.0037 19.9867 30.7617C20.2412 30.5198 20.3842 30.1917 20.3842 29.8496V27.8666C21.3146 27.6108 22.2122 27.2572 23.0602 26.8124L24.5362 28.2145C24.6622 28.3344 24.8119 28.4296 24.9766 28.4945C25.1413 28.5594 25.3179 28.5928 25.4962 28.5928C25.6745 28.5928 25.8511 28.5594 26.0158 28.4945C26.1805 28.4296 26.3302 28.3344 26.4562 28.2145L29.7042 25.1269C29.8303 25.0071 29.9304 24.8649 29.9987 24.7083C30.067 24.5517 30.1021 24.3838 30.1021 24.2143C30.1021 24.0448 30.067 23.877 29.9987 23.7204C29.9304 23.5638 29.8303 23.4215 29.7042 23.3017L28.2292 21.8986C28.6971 21.0928 29.069 20.2399 29.3382 19.3557H31.4242C31.7841 19.3557 32.1293 19.2198 32.3837 18.9779C32.6382 18.736 32.7812 18.4078 32.7812 18.0657V13.6986C32.7812 13.3565 32.6382 13.0284 32.3837 12.7864C32.1293 12.5445 31.7841 12.4086 31.4242 12.4086H29.3382C29.0691 11.5241 28.6971 10.6709 28.2292 9.86476L29.7042 8.46165C29.8303 8.34185 29.9304 8.19959 29.9987 8.043C30.067 7.88641 30.1021 7.71856 30.1021 7.54905C30.1021 7.37954 30.067 7.21171 29.9987 7.05512C29.9304 6.89853 29.8303 6.75627 29.7042 6.63647L26.4562 3.54886C26.3302 3.42894 26.1805 3.33381 26.0158 3.26891C25.8511 3.204 25.6745 3.17059 25.4962 3.17059C25.3179 3.17059 25.1413 3.204 24.9766 3.26891C24.8119 3.33381 24.6622 3.42894 24.5362 3.54886L23.0602 4.95101C22.2122 4.50617 21.3146 4.15259 20.3842 3.89678V1.9138C20.3841 1.74431 20.3488 1.57652 20.2804 1.41999C20.212 1.26347 20.1119 1.12129 19.9857 1.00158C19.8595 0.881865 19.7097 0.786976 19.5449 0.72232C19.3801 0.657663 19.2035 0.624507 19.0252 0.624757H19.0262Z" fill="#70AC5E"/>
</svg>
