<svg width="28" height="28" viewBox="0 0 28 28" fill="none" xmlns="http://www.w3.org/2000/svg">
<path d="M22.9477 2.18115L17.4752 8.37863C16.723 9.2304 16.8396 10.5005 17.7357 11.2155L17.7364 11.2161C18.6325 11.9311 19.9686 11.8203 20.7207 10.9685L26.1933 4.771C26.9454 3.91923 26.8288 2.64911 25.9328 1.93411L25.932 1.9335C25.036 1.2185 23.6999 1.32938 22.9477 2.18115Z" fill="#70AC5E"/>
<path d="M14.095 13.921L14.949 11.1642C14.986 11.0445 15.0539 10.9355 15.1464 10.847C15.2389 10.7584 15.353 10.6932 15.4787 10.6571C15.6043 10.6211 15.7375 10.6154 15.866 10.6405C15.9946 10.6657 16.1145 10.7208 16.215 10.8011L18.064 12.2764C18.1646 12.3566 18.2426 12.4592 18.2909 12.5752C18.3393 12.6911 18.3566 12.8167 18.3411 12.9406C18.3256 13.0645 18.2779 13.1827 18.2023 13.2847C18.1267 13.3866 18.0255 13.4691 17.908 13.5246L15.208 14.8022C15.0706 14.8678 14.916 14.8939 14.7632 14.8772C14.6104 14.8605 14.4661 14.8017 14.3479 14.7081C14.2298 14.6146 14.1429 14.4903 14.0979 14.3504C14.053 14.2106 14.052 14.0613 14.095 13.921Z" fill="#70AC5E"/>
<path d="M21.3101 27.1261H3.2901C2.45281 27.1398 1.64396 26.8373 1.04105 26.2848C0.438132 25.7323 0.0903917 24.9751 0.0740967 24.1792V8.30957C0.0901289 7.51358 0.437799 6.75616 1.04077 6.20363C1.64374 5.65111 2.45274 5.34865 3.2901 5.36265L15.0901 5.37121C15.4046 5.37121 15.7063 5.49 15.9287 5.70143C16.1511 5.91287 16.2761 6.19963 16.2761 6.49864C16.2761 6.79766 16.1511 7.08442 15.9287 7.29585C15.7063 7.50729 15.4046 7.62608 15.0901 7.62608L3.2901 7.61752C3.08263 7.60412 2.87795 7.66892 2.72037 7.79791C2.56278 7.92689 2.46496 8.10967 2.44809 8.3067V24.182C2.46521 24.3793 2.56338 24.5623 2.72134 24.6912C2.87931 24.8202 3.08434 24.8849 3.29208 24.8712H21.3121C21.5198 24.8846 21.7247 24.8199 21.8826 24.6909C22.0405 24.562 22.1387 24.3792 22.1561 24.182L22.1651 11.8411C22.1651 11.5421 22.29 11.2553 22.5125 11.0439C22.7349 10.8325 23.0365 10.7137 23.3511 10.7137C23.6656 10.7137 23.9673 10.8325 24.1897 11.0439C24.4121 11.2553 24.5371 11.5421 24.5371 11.8411L24.5241 24.1849C24.5067 24.9796 24.1588 25.7354 23.5563 26.2867C22.9539 26.838 22.1462 27.1398 21.3101 27.1261Z" fill="#70AC5E"/>
</svg>
