<svg width="25" height="28" viewBox="0 0 25 28" fill="none" xmlns="http://www.w3.org/2000/svg">
<path d="M21.3572 2.88538C21.702 2.88538 22.0326 3.01559 22.2764 3.24735C22.5202 3.47911 22.6572 3.79345 22.6572 4.1212V23.9397C22.6572 24.2674 22.5202 24.5817 22.2764 24.8135C22.0326 25.0452 21.702 25.1755 21.3572 25.1755H3.67419C3.32941 25.1755 2.99874 25.0452 2.75494 24.8135C2.51115 24.5817 2.37418 24.2674 2.37418 23.9397V4.11737C2.37418 3.78962 2.51115 3.47531 2.75494 3.24355C2.99874 3.01179 3.32941 2.88158 3.67419 2.88158H21.3572M21.3572 0.94043H3.67419C2.78908 0.94043 1.94018 1.27461 1.31421 1.86949C0.688241 2.46437 0.336447 3.27124 0.336182 4.11264V23.9397C0.336182 24.7812 0.687877 25.5883 1.31387 26.1834C1.93987 26.7785 2.7889 27.1128 3.67419 27.1128H21.3572C22.2425 27.1128 23.0915 26.7785 23.7175 26.1834C24.3435 25.5883 24.6952 24.7812 24.6952 23.9397V4.11737C24.6952 3.2758 24.3435 2.46869 23.7175 1.87361C23.0915 1.27853 22.2425 0.94423 21.3572 0.94423V0.94043Z" fill="#70AC5E"/>
<path d="M19.8232 6.75537H5.20816C5.07506 6.75537 4.96716 6.85794 4.96716 6.98447C4.96716 7.111 5.07506 7.21357 5.20816 7.21357H19.8232C19.9563 7.21357 20.0642 7.111 20.0642 6.98447C20.0642 6.85794 19.9563 6.75537 19.8232 6.75537Z" fill="black"/>
<path d="M19.9741 6.00433H5.05811C4.82445 6.00433 4.60034 6.09259 4.43512 6.24965C4.2699 6.40671 4.17712 6.61975 4.17712 6.84187V7.12704C4.17712 7.34916 4.2699 7.56214 4.43512 7.7192C4.60034 7.87626 4.82445 7.96452 5.05811 7.96452H19.9741C20.2078 7.96452 20.4318 7.87626 20.597 7.7192C20.7623 7.56214 20.8551 7.34916 20.8551 7.12704V6.84187C20.8551 6.61975 20.7623 6.40671 20.597 6.24965C20.4318 6.09259 20.2078 6.00433 19.9741 6.00433Z" fill="#70AC5E"/>
<path d="M19.8241 11.1529H5.20805C5.05175 11.1529 4.92505 11.2733 4.92505 11.4219V11.4229C4.92505 11.5714 5.05175 11.6919 5.20805 11.6919H19.8241C19.9803 11.6919 20.1071 11.5714 20.1071 11.4229V11.4219C20.1071 11.2733 19.9803 11.1529 19.8241 11.1529Z" fill="black"/>
<path d="M19.9741 10.4418H5.05811C4.82445 10.4418 4.60034 10.5301 4.43512 10.6871C4.2699 10.8442 4.17712 11.0572 4.17712 11.2793V11.5645C4.17712 11.7867 4.2699 11.9996 4.43512 12.1567C4.60034 12.3138 4.82445 12.402 5.05811 12.402H19.9741C20.2078 12.402 20.4318 12.3138 20.597 12.1567C20.7623 11.9996 20.8551 11.7867 20.8551 11.5645V11.2793C20.8551 11.0572 20.7623 10.8442 20.597 10.6871C20.4318 10.5301 20.2078 10.4418 19.9741 10.4418Z" fill="#70AC5E"/>
<path d="M13.586 15.5352H5.20798C5.03898 15.5352 4.90198 15.6652 4.90198 15.8256C4.90198 15.986 5.03898 16.116 5.20798 16.116H13.586C13.755 16.116 13.892 15.986 13.892 15.8256C13.892 15.6652 13.755 15.5352 13.586 15.5352Z" fill="black"/>
<path d="M13.7371 14.8451H5.05811C4.82445 14.8451 4.60034 14.9333 4.43512 15.0904C4.2699 15.2475 4.17712 15.4605 4.17712 15.6826V15.9678C4.17712 16.1899 4.2699 16.4029 4.43512 16.56C4.60034 16.717 4.82445 16.8053 5.05811 16.8053H13.7371C13.9708 16.8053 14.1948 16.717 14.36 16.56C14.5253 16.4029 14.6181 16.1899 14.6181 15.9678V15.6826C14.6181 15.4605 14.5253 15.2475 14.36 15.0904C14.1948 14.9333 13.9708 14.8451 13.7371 14.8451Z" fill="#70AC5E"/>
</svg>
