<?xml version="1.0" encoding="UTF-8" standalone="no"?>
<!DOCTYPE svg PUBLIC "-//W3C//DTD SVG 1.1//EN" "http://www.w3.org/Graphics/SVG/1.1/DTD/svg11.dtd">
<svg width="100%" height="100%" viewBox="0 0 1449 1427" version="1.1" xmlns="http://www.w3.org/2000/svg" xmlns:xlink="http://www.w3.org/1999/xlink" xml:space="preserve" xmlns:serif="http://www.serif.com/" style="fill-rule:evenodd;clip-rule:evenodd;stroke-linecap:round;stroke-linejoin:round;stroke-miterlimit:1.5;">
    <g transform="matrix(1,0,0,1,-15.9478,-35.9731)">
        <g transform="matrix(0.903613,0,0,1.07537,-2.16005e-12,-0.5)">
            <g transform="matrix(3.02133e-16,13.8451,-4.9342,8.47765e-16,5101.8,-10356.9)">
                <path d="M798.167,739.273L798.167,715.656" style="fill:none;stroke:rgb(105,171,93);stroke-width:8.19px;"/>
            </g>
        </g>
        <g transform="matrix(0.903613,0,0,1.07537,-2.16005e-12,-0.5)">
            <g transform="matrix(3.02133e-16,13.8451,-4.9342,8.47765e-16,3715.17,-10352.7)">
                <path d="M798.167,739.273L798.167,715.656" style="fill:none;stroke:rgb(105,171,93);stroke-width:8.19px;"/>
            </g>
        </g>
        <g transform="matrix(0.903613,0,0,1.07537,-2.16005e-12,-0.5)">
            <g transform="matrix(-11.6508,9.78994,-3.48901,-2.93175,13139.9,-4575.67)">
                <path d="M798.167,739.273L798.167,715.656" style="fill:none;stroke:rgb(105,171,93);stroke-width:8.19px;"/>
            </g>
        </g>
        <g transform="matrix(0.903613,0,0,1.07537,-2.16005e-12,-0.5)">
            <g transform="matrix(-11.6508,9.78994,-3.48901,-2.93175,12155.5,-5388.43)">
                <path d="M798.167,739.273L798.167,715.656" style="fill:none;stroke:rgb(105,171,93);stroke-width:8.19px;"/>
            </g>
        </g>
        <g transform="matrix(0.903613,0,0,1.07537,-2.16005e-12,-0.5)">
            <g transform="matrix(11.6508,9.78994,3.48901,-2.93175,-10533.8,-5388.43)">
                <path d="M798.167,739.273L798.167,715.656" style="fill:none;stroke:rgb(105,171,93);stroke-width:8.19px;"/>
            </g>
        </g>
        <g transform="matrix(0.903613,0,0,1.07537,-2.16005e-12,-0.5)">
            <g transform="matrix(11.6508,9.78994,3.48901,-2.93175,-11541.4,-4576.6)">
                <path d="M798.167,739.273L798.167,715.656" style="fill:none;stroke:rgb(105,171,93);stroke-width:8.19px;"/>
            </g>
        </g>
        <g transform="matrix(0.903613,0,0,1.07537,-2.16005e-12,-0.5)">
            <g transform="matrix(-16.4767,8.79297e-14,-3.19744e-14,-4.14612,13961.1,4286.04)">
                <path d="M798.167,739.273L798.167,715.656" style="fill:none;stroke:rgb(105,171,93);stroke-width:8.19px;"/>
            </g>
        </g>
        <g transform="matrix(0.903613,0,0,1.07537,-2.16005e-12,-0.5)">
            <g transform="matrix(-16.4767,8.79297e-14,-3.19744e-14,-4.14612,13959.2,3140.88)">
                <path d="M798.167,739.273L798.167,715.656" style="fill:none;stroke:rgb(105,171,93);stroke-width:8.19px;"/>
            </g>
        </g>
        <g transform="matrix(0.903613,0,0,1.07537,-2.16005e-12,-0.5)">
            <g transform="matrix(24.743,0,0,21.1761,-19060.8,-15601.6)">
                <circle cx="803.665" cy="769.518" r="19.449" style="fill:rgb(105,171,93);"/>
            </g>
        </g>
    </g>
</svg>
